<mxfile host="app.diagrams.net" modified="2023-09-28T15:01:38.155Z" agent="Mozilla/5.0 (Windows NT 10.0; Win64; x64) AppleWebKit/537.36 (KHTML, like Gecko) Chrome/117.0.0.0 Safari/537.36" version="22.0.0" etag="kw_Ae5nEBDkQkOOvazA0" type="github">
  <diagram name="PÃ¡gina-1" id="IP8s__zjZR51yGOYzTR5">
    <mxGraphModel>
      <root>
        <mxCell id="0" />
        <mxCell id="1" parent="0" />
      </root>
    </mxGraphModel>
  </diagram>
</mxfile>
